<svg width="10" height="10" xmlns="http://www.w3.org/2000/svg">
 <g>
  <title>Group Leader Indicator</title>
  <path stroke="null" id="svg_2" fill="#ffa126" d="m9.418946,9.723815c0,0.152564 -0.123676,0.276185 -0.276185,0.276185l-8.285524,0c-0.152532,0 -0.276185,-0.123621 -0.276185,-0.276185l0,-0.828276c0,-1.655006 1.240376,-2.870824 2.627285,-3.486936c-0.593719,-0.557118 -0.97018,-1.386002 -0.97018,-2.31155c0,-1.677459 1.236521,-3.037307 2.761842,-3.037307c1.52531,0 2.761841,1.359847 2.761841,3.037307c0,0.925161 -0.376107,1.753714 -0.969351,2.310777c1.388157,0.615725 2.626457,1.829942 2.626457,3.487709l0,0.828276zm-7.687177,-0.828276l6.58244,0c0,-1.655006 -1.38092,-2.761178 -3.314209,-2.761178c-1.933289,0 -3.31421,1.106172 -3.268231,2.761178zm3.268231,-3.865639c0.915219,0 1.657104,-0.865396 1.657104,-1.932847c0,-1.067473 -0.741885,-1.93283 -1.657104,-1.93283c-0.915219,0 -1.657106,0.865357 -1.657106,1.93283c0,1.067451 0.741886,1.932847 1.657106,1.932847z" clip-rule="evenodd" fill-rule="evenodd"/>
 </g>
</svg>
